<svg xmlns="http://www.w3.org/2000/svg" viewBox="0 0 512 512"><g fill="#231F20"><path d="M496.4 244.6 408.3 183V21.4c0-5.8-4.7-10.4-10.4-10.4H114.1c-5.8 0-10.4 4.7-10.4 10.4V183l-88.1 61.6s-4.6 2.9-4.6 8.7v237.3c0 5.8 4.7 10.4 10.4 10.4h469.1c5.8 0 10.4-4.7 10.4-10.4V253.2c.1-5.8-4.5-8.6-4.5-8.6m-24 8.6L408.3 298v-89.6zM124.6 31.9h262.9v280.6L256 402.7l-131.4-90.2zm-20.9 176.5V298l-64.1-44.8zM31.9 480.1V273.2l218.2 150.7c5.3 3.4 10 1.2 11.8 0l218.2-150.7v206.9z"/><path d="M172.9 96.3h166.2c5.8 0 10.4-4.7 10.4-10.4 0-5.8-4.7-10.4-10.4-10.4H172.9c-5.8 0-10.4 4.7-10.4 10.4 0 5.8 4.6 10.4 10.4 10.4m0 60.3h166.2c5.8 0 10.4-4.7 10.4-10.4 0-5.8-4.7-10.4-10.4-10.4H172.9c-5.8 0-10.4 4.7-10.4 10.4s4.6 10.4 10.4 10.4m0 60.2h166.2c5.8 0 10.4-4.7 10.4-10.4 0-5.8-4.7-10.4-10.4-10.4H172.9c-5.8 0-10.4 4.7-10.4 10.4s4.6 10.4 10.4 10.4"/></g></svg>